<svg id="Capa_1" enable-background="new 0 0 512 512" height="512" viewBox="0 0 512 512" width="512" xmlns="http://www.w3.org/2000/svg"><path d="m0 241v225c0 8.291 6.709 15 15 15h45l30-30v-180l-30-30-30-30z" fill="#fdbf00"/><path d="m60 241v240h60l30-30v-180l-30-30-30-30z" fill="#596c76"/><path d="m482 211-30 30-30 30v180l30 30h45c8.291 0 15-6.709 15-15v-225z" fill="#ff9100"/><path d="m392 241-30 30v180l30 30h60v-240l-30-30z" fill="#465a61"/><path d="m120 241h272v240h-272z" fill="#697c86"/><path d="m256 241h136v240h-136z" fill="#596c76"/><path d="m512 181v60h-512v-60l30-30h452z" fill="#ffda2d"/><path d="m512 181v60h-256v-90h226z" fill="#fdbf00"/><path d="m331 151v105c0 41.4-33.6 75-75 75s-75-33.6-75-75v-105z" fill="#e6ffff"/><path d="m331 151v105c0 41.4-33.6 75-75 75v-180z" fill="#d9f2ff"/><path d="m271 256c0 8.399-6.599 15-15 15s-15-6.601-15-15c0-8.401 6.599-15 15-15s15 6.599 15 15z" fill="#697c86"/><circle cx="196" cy="406" fill="#596c76" r="15"/><path d="m271 406c0 8.399-6.599 15-15 15s-15-6.601-15-15c0-8.401 6.599-15 15-15s15 6.599 15 15z" fill="#596c76"/><circle cx="316" cy="406" fill="#465a61" r="15"/><path d="m60 41.532c-35.345 16.921-60 52.742-60 94.468v45h60l30-75z" fill="#fdbf00"/><path d="m452 41.532-30 64.468 30 75h60v-45c0-41.726-24.655-77.547-60-94.468z" fill="#ff9100"/><path d="m271 406c0 8.399-6.599 15-15 15v-30c8.401 0 15 6.599 15 15z" fill="#465a61"/><path d="m271 256c0 8.399-6.599 15-15 15v-30c8.401 0 15 6.599 15 15z" fill="#596c76"/><path d="m452 41.499v139.501h-392v-139.501c13.801-6.599 28.801-10.499 45-10.499h302c16.199 0 31.199 3.9 45 10.499z" fill="#596c76"/><path d="m452 41.499v139.501h-196v-150h151c16.199 0 31.199 3.9 45 10.499z" fill="#465a61"/></svg>