<svg xmlns="http://www.w3.org/2000/svg" height="511pt" version="1.1" viewBox="0 0 511 511.99949" width="511pt">
<g id="surface1">
<path d="M 507.972656 66.183594 L 446.265625 4.476562 C 440.300781 -1.492188 430.625 -1.492188 424.65625 4.476562 L 356.371094 72.757812 C 350.40625 78.726562 350.40625 88.402344 356.371094 94.371094 L 418.082031 156.078125 C 424.046875 162.046875 433.722656 162.046875 439.691406 156.078125 L 507.972656 87.792969 C 513.941406 81.824219 513.941406 72.152344 507.972656 66.183594 Z M 507.972656 66.183594 " style=" stroke:none;fill-rule:nonzero;fill:rgb(100%,63.137255%,48.235294%);fill-opacity:1;" />
<path d="M 507.980469 87.796875 C 436.839844 158.503906 439.738281 157.019531 435.515625 159.046875 C 429.898438 161.757812 422.828125 160.832031 418.078125 156.082031 L 387.230469 125.222656 C 431.035156 81.429688 417.570312 94.894531 420.214844 92.246094 L 477.121094 35.332031 L 507.980469 66.179688 C 513.9375 72.148438 513.9375 81.824219 507.980469 87.796875 Z M 507.980469 87.796875 " style=" stroke:none;fill-rule:nonzero;fill:rgb(100%,53.333333%,34.901961%);fill-opacity:1;" />
<path d="M 55.402344 457.046875 C 7.246094 408.886719 -11.011719 338.265625 7.753906 272.730469 C 39.800781 160.707031 166.953125 103.949219 272.183594 156.953125 L 349.257812 79.878906 C 352.121094 77.011719 356.007812 75.402344 360.0625 75.402344 C 364.113281 75.402344 368 77.011719 370.867188 79.878906 L 432.570312 141.582031 C 438.535156 147.546875 438.539062 157.226562 432.570312 163.195312 L 355.492188 240.273438 C 360.707031 250.648438 364.953125 261.523438 368.160156 272.734375 C 386.9375 338.257812 368.683594 408.882812 320.519531 457.046875 C 247.257812 530.3125 128.679688 530.324219 55.402344 457.046875 Z M 55.402344 457.046875 " style=" stroke:none;fill-rule:nonzero;fill:rgb(49.411765%,84.705882%,96.470588%);fill-opacity:1;" />
<path d="M 432.574219 141.585938 L 401.726562 110.738281 L 387.230469 125.222656 L 380.117188 132.34375 L 363.402344 149.0625 L 259.988281 252.464844 C 242.59375 269.859375 83.097656 429.355469 77.027344 435.425781 L 55.40625 457.046875 C 128.648438 530.304688 247.246094 530.324219 320.523438 457.046875 C 368.6875 408.890625 386.933594 338.261719 368.160156 272.734375 C 364.949219 261.519531 360.703125 250.648438 355.496094 240.269531 L 405.058594 190.71875 C 433.164062 162.203125 433.519531 163.148438 435.515625 159.046875 C 438.355469 153.199219 437.167969 146.179688 432.574219 141.585938 Z M 432.574219 141.585938 " style=" stroke:none;fill-rule:nonzero;fill:rgb(36.862745%,80.784314%,95.686275%);fill-opacity:1;" />
<path d="M 187.96875 481.398438 C 146.058594 481.398438 106.652344 465.078125 77.015625 435.433594 C 36.707031 395.132812 21.425781 336.003906 37.132812 281.144531 C 65.324219 182.585938 179.339844 137.585938 267.195312 189.011719 C 273.195312 192.527344 280.804688 191.546875 285.726562 186.636719 L 360.0625 112.292969 L 400.160156 152.386719 L 325.8125 226.726562 C 320.902344 231.644531 319.921875 239.253906 323.4375 245.257812 C 384.691406 349.84375 308.699219 481.398438 187.96875 481.398438 Z M 187.96875 481.398438 " style=" stroke:none;fill-rule:nonzero;fill:rgb(74.509804%,92.156863%,98.039216%);fill-opacity:1;" />
<path d="M 325.808594 226.71875 C 320.898438 231.640625 319.921875 239.25 323.4375 245.25 C 384.230469 349.054688 309.472656 481.394531 187.964844 481.394531 C 146.054688 481.394531 106.660156 465.074219 77.027344 435.425781 C 80.335938 432.117188 250.929688 261.523438 259.988281 252.464844 L 363.402344 149.0625 L 380.117188 132.34375 L 400.15625 152.382812 L 383.441406 169.101562 Z M 325.808594 226.71875 " style=" stroke:none;fill-rule:nonzero;fill:rgb(61.960784%,88.627451%,97.254902%);fill-opacity:1;" />
<path d="M 472.242188 144.269531 L 376.382812 48.410156 C 362.617188 34.644531 340.296875 34.644531 326.53125 48.410156 L 319.566406 55.378906 C 305.800781 69.144531 305.800781 91.464844 319.566406 105.230469 L 415.425781 201.089844 C 429.191406 214.855469 451.511719 214.855469 465.277344 201.089844 L 472.242188 194.121094 C 486.007812 180.355469 486.007812 158.035156 472.242188 144.269531 Z M 472.242188 144.269531 " style=" stroke:none;fill-rule:nonzero;fill:rgb(36.862745%,80.784314%,95.686275%);fill-opacity:1;" />
<path d="M 472.242188 194.121094 L 465.273438 201.089844 C 451.511719 214.851562 429.191406 214.851562 415.425781 201.089844 C 408.601562 194.261719 390.277344 175.9375 383.441406 169.101562 L 363.402344 149.0625 L 380.117188 132.34375 L 387.230469 125.222656 C 431.035156 81.429688 417.570312 94.894531 420.214844 92.246094 L 472.242188 144.273438 C 486.003906 158.039062 486.003906 180.359375 472.242188 194.121094 Z M 472.242188 194.121094 " style=" stroke:none;fill-rule:nonzero;fill:rgb(18.431373%,75.294118%,94.117647%);fill-opacity:1;" />
<path d="M 343.476562 345.382812 C 326.234375 474.671875 168.160156 526.605469 77.015625 435.425781 C 52.484375 410.90625 36.980469 379.378906 32.445312 345.382812 Z M 343.476562 345.382812 " style=" stroke:none;fill-rule:nonzero;fill:rgb(100%,72.54902%,61.568627%);fill-opacity:1;" />
<path d="M 343.476562 345.382812 C 333.28125 421.828125 267.972656 481.394531 187.964844 481.394531 L 187.957031 481.394531 L 187.957031 345.382812 Z M 343.476562 345.382812 " style=" stroke:none;fill-rule:nonzero;fill:rgb(100%,63.137255%,48.235294%);fill-opacity:1;" />
<path d="M 278.449219 345.648438 L 198.765625 425.320312 C 192.792969 431.292969 183.105469 431.269531 177.15625 425.320312 L 97.472656 345.648438 C 61.375 309.535156 87.417969 248.113281 137.875 248.113281 C 153.136719 248.113281 167.480469 254.050781 178.277344 264.839844 L 187.964844 274.527344 L 197.652344 264.839844 C 208.441406 254.050781 222.785156 248.113281 238.046875 248.113281 C 288.527344 248.113281 314.519531 309.5625 278.449219 345.648438 Z M 278.449219 345.648438 " style=" stroke:none;fill-rule:nonzero;fill:rgb(100%,48.627451%,28.235294%);fill-opacity:1;" />
<path d="M 278.449219 345.667969 L 198.765625 425.34375 C 195.902344 428.207031 192.007812 429.816406 187.964844 429.816406 L 187.964844 274.550781 L 197.652344 264.863281 C 208.441406 254.074219 222.785156 248.136719 238.046875 248.136719 C 253.308594 248.136719 267.652344 254.074219 278.449219 264.863281 C 300.71875 287.140625 300.71875 323.386719 278.449219 345.667969 Z M 278.449219 345.667969 " style=" stroke:none;fill-rule:nonzero;fill:rgb(100%,39.215686%,14.901961%);fill-opacity:1;" />
</g>
</svg>